{"accessors":[{"bufferView":0,"componentType":5125,"count":1235229,"max":[1235228],"min":[0],"type":"SCALAR"},{"bufferView":1,"componentType":5126,"count":1235229,"max":[5.141110420227051,5.7530517578125,6.784463405609131],"min":[-5.819549560546875,-6.479637145996094,-5.309425354003906],"type":"VEC3"},{"bufferView":2,"componentType":5126,"count":1235229,"max":[0.9999983310699463,0.9999906420707703,0.9999942183494568],"min":[-0.9999995827674866,-0.9999867081642151,-0.9999995231628418],"type":"VEC3"},{"bufferView":3,"componentType":5126,"count":1235229,"max":[0.9997389912605286,0.9996059999975841],"min":[0.0002589999930933118,0.00025898218154907227],"type":"VEC2"},{"bufferView":4,"componentType":5123,"count":297,"max":[296],"min":[0],"type":"SCALAR"},{"bufferView":5,"componentType":5126,"count":297,"max":[2.712984800338745,3.4938583374023438,1.463996410369873],"min":[-3.456998109817505,-4.050567626953125,-0.8635386228561401],"type":"VEC3"},{"bufferView":6,"componentType":5126,"count":297,"max":[0.9901831150054932,0.9371142983436584,0.9824553728103638],"min":[-0.9848684668540955,-0.7444266080856323,-0.8843404054641724],"type":"VEC3"},{"bufferView":7,"componentType":5126,"count":297,"max":[0.5,0.5],"min":[0.5,0.5],"type":"VEC2"}],"asset":{"generator":"Verge3D for Blender","version":"2.0"},"bufferViews":[{"buffer":0,"byteLength":4940916,"byteOffset":0,"target":34963},{"buffer":0,"byteLength":14822748,"byteOffset":4940916,"target":34962},{"buffer":0,"byteLength":14822748,"byteOffset":19763664,"target":34962},{"buffer":0,"byteLength":9881832,"byteOffset":34586412,"target":34962},{"buffer":0,"byteLength":594,"byteOffset":44468244,"target":34963},{"buffer":0,"byteLength":3564,"byteOffset":44468840,"target":34962},{"buffer":0,"byteLength":3564,"byteOffset":44472404,"target":34962},{"buffer":0,"byteLength":2376,"byteOffset":44475968,"target":34962}],"buffers":[{"byteLength":44478344,"uri":"Meni5.bin"}],"cameras":[{"extensions":{"S8S_v3d_camera":{"controls":"ORBIT","enablePan":true,"moveSpeed":1.0,"orbitMaxDistance":100.0,"orbitMaxPolarAngle":3.1415927410125732,"orbitMaxZoom":100.0,"orbitMinDistance":0.0,"orbitMinPolarAngle":0.0,"orbitMinZoom":0.009999999776482582,"orbitTarget":[0.0,0.0,-0.0],"rotateSpeed":1.0,"viewportFitInitialAspect":1.7777777777777777,"viewportFitType":"AUTO"}},"name":"Camera","perspective":{"aspectRatio":1.7777777777777777,"yfov":0.5033799372418416,"zfar":100.0,"znear":0.10000000149011612},"type":"perspective"}],"extensions":{"S8S_v3d_lights":{"lights":[{"color":[1.0,1.0,1.0],"decay":2,"distance":10.00000011175871,"intensity":100.0,"name":"Lamp","profile":"blender","shadow":{"bias":-0.0018,"cameraFar":10.00000011175871,"cameraFov":0,"cameraNear":1.0007989406585693,"enabled":true,"expBias":2.5,"mapSize":512,"radius":1.0,"slopeScaledBias":2.5},"type":"point"}]}},"extensionsUsed":["S8S_v3d_texture","S8S_v3d_materials","S8S_v3d_camera","S8S_v3d_lights","S8S_v3d_mesh","S8S_v3d_node","S8S_v3d_scene"],"images":[{"uri":"Menilita_5b2.jpg"},{"uri":"environment.hdr"}],"materials":[{"extensions":{"S8S_v3d_materials":{"gtaoVisible":true,"materialIndex":0,"nodeGraph":{"edges":[{"fromNode":2,"fromOutput":0,"toInput":0,"toNode":0},{"fromNode":0,"fromOutput":0,"toInput":0,"toNode":1}],"nodes":[{"inputs":[[1.0,1.0,1.0,1.0],0.0,[1.0,0.20000000298023224,0.10000000149011612],[0.800000011920929,0.800000011920929,0.800000011920929,1.0],1.399999976158142,0.0,0.0,1.0,0.0,1.0,0.0,0.0,0.0,0.5,0.0,0.029999999329447746,1.4500000476837158,0.0,0.0,[0.0,0.0,0.0,1.0],1.0,1.0,[0.0,0.0,0.0],[0.0,0.0,0.0],[0.0,0.0,0.0]],"is_active_output":false,"name":"BSDF Principista","outputs":[[0,0,0,0]],"type":"BSDF_PRINCIPLED_BL"},{"inputs":[[0,0,0,0],[0,0,0,0],[0.0,0.0,0.0],0.0],"is_active_output":true,"name":"Material","outputs":[],"type":"OUTPUT_MATERIAL_BL"},{"alphaMode":"STRAIGHT","inputs":[[0.0,0.0,0.0]],"is_active_output":false,"name":"Imagen","outputs":[[0.0,0.0,0.0,0.0],0.0],"projection":"FLAT","projectionBlend":0.0,"texture":0,"type":"TEX_IMAGE_BL"}]},"useCastShadows":true}},"name":"material_0"},{"extensions":{"S8S_v3d_materials":{"gtaoVisible":true,"materialIndex":0,"nodeGraph":{"edges":[{"fromNode":0,"fromOutput":0,"toInput":0,"toNode":1}],"nodes":[{"inputs":[[1.0,1.0,1.0,1.0],0.0,[1.0,0.20000000298023224,0.10000000149011612],[0.800000011920929,0.800000011920929,0.800000011920929,1.0],1.399999976158142,0.0,0.0,1.0,0.0,1.0,0.0,0.0,0.0,0.5,0.0,0.029999999329447746,1.4500000476837158,0.0,0.0,[0.0,0.0,0.0,1.0],1.0,1.0,[0.0,0.0,0.0],[0.0,0.0,0.0],[0.0,0.0,0.0]],"is_active_output":false,"name":"BSDF Principista","outputs":[[0,0,0,0]],"type":"BSDF_PRINCIPLED_BL"},{"inputs":[[0,0,0,0],[0,0,0,0],[0.0,0.0,0.0],0.0],"is_active_output":true,"name":"Material","outputs":[],"type":"OUTPUT_MATERIAL_BL"}]},"useCastShadows":true}},"name":"material_1"},{"extensions":{"S8S_v3d_materials":{"gtaoVisible":true,"materialIndex":0,"nodeGraph":{"edges":[{"fromNode":0,"fromOutput":0,"toInput":0,"toNode":1},{"fromNode":4,"fromOutput":0,"toInput":6,"toNode":2},{"fromNode":3,"fromOutput":0,"toInput":0,"toNode":2},{"fromNode":2,"fromOutput":2,"toInput":0,"toNode":0}],"nodes":[{"inputs":[[0.05087608844041824,0.05087608844041824,0.05087608844041824,1.0],1.0],"is_active_output":false,"name":"Background","outputs":[[0,0,0,0]],"type":"BACKGROUND_BL"},{"inputs":[[0,0,0,0],[0,0,0,0]],"is_active_output":true,"name":"World Output","outputs":[],"type":"OUTPUT_WORLD_BL"},{"blendType":"MIX","clampFactor":true,"clampResult":false,"dataType":"RGBA","factorMode":"UNIFORM","inputs":[0.5,[0.5,0.5,0.5],0.0,0.0,[0.0,0.0,0.0],[0.0,0.0,0.0],[0.5,0.5,0.5,1.0],[0.05126946419477463,0.05126946419477463,0.05126946419477463,1.0]],"is_active_output":false,"name":"Mix","outputs":[0.0,[0.0,0.0,0.0],[0.0,0.0,0.0,0.0]],"type":"MIX_BL"},{"inputs":[],"is_active_output":false,"name":"Light Path","outputs":[0.0,0.0,0.0,0.0,0.0,0.0,0.0,0.0,0.0,0.0,0.0,0.0,0.0],"type":"LIGHT_PATH_BL"},{"inputs":[[0.0,0.0,0.0]],"is_active_output":false,"name":"Environment Texture","outputs":[[0.0,0.0,0.0,0.0]],"projection":"EQUIRECTANGULAR","texture":1,"type":"TEX_ENVIRONMENT_BL"}]},"useCastShadows":true}},"name":"Verge3D_Environment_World"}],"meshes":[{"extensions":{"S8S_v3d_mesh":{"colorLayers":{},"uvLayers":{"UVMap":"TEXCOORD_0"}}},"name":"Menilita_5b2","primitives":[{"attributes":{"NORMAL":2,"POSITION":1,"TEXCOORD_0":3},"indices":0,"material":0,"mode":4},{"attributes":{"NORMAL":6,"POSITION":5,"TEXCOORD_0":7},"indices":4,"material":1,"mode":4}]}],"nodes":[{"extensions":{"S8S_v3d_node":{"frustumCulling":true,"groupNames":[],"hidden":false,"hidpiCompositing":false,"objectColor":[1.0,1.0,1.0,1.0],"objectIndex":0,"renderOrder":0,"useShadows":true}},"mesh":0,"name":"Menilita_5b2","rotation":[-0.8644565939903259,-0.47753337025642395,0.15514105558395386,0.024656860157847404],"scale":[0.4000000059604645,0.3999999761581421,0.4000000059604645]},{"camera":0,"extensions":{"S8S_v3d_node":{"frustumCulling":true,"groupNames":["Collection 1"],"hidden":false,"hidpiCompositing":false,"objectColor":[0.0,0.0,0.0,0.0],"objectIndex":0,"renderOrder":0}},"name":"Camera","rotation":[-0.20997299253940582,0.3857799470424652,0.09062844514846802,0.8937962055206299],"scale":[1.0,0.9999998807907104,0.9999998807907104],"translation":[7.226052284240723,5.1113457679748535,6.946681022644043]},{"extensions":{"S8S_v3d_lights":{"light":0},"S8S_v3d_node":{"frustumCulling":true,"groupNames":["Collection 1"],"hidden":false,"hidpiCompositing":false,"objectColor":[0.0,0.0,0.0,0.0],"objectIndex":0,"renderOrder":0}},"name":"Lamp","rotation":[-0.28416627645492554,0.7269423007965088,0.34203392267227173,0.5232754945755005],"scale":[1.0,0.9999998807907104,0.9999998807907104],"translation":[4.076245307922363,5.903861999511719,-1.0054539442062378]}],"samplers":[{}],"scene":0,"scenes":[{"extensions":{"S8S_v3d_scene":{"aaMethod":"AUTO","iblEnvironmentMode":"PMREM","physicallyCorrectLights":true,"pmremMaxTileSize":256,"shadowMap":{"esmDistanceScale":1.0,"renderReverseSided":false,"renderSingleSided":true,"type":"PCFPOISSON"},"worldMaterial":2}},"extras":{"animFrameRate":24,"coordSystem":"Z_UP_RIGHT"},"name":"Scene","nodes":[0,2,1]}],"textures":[{"extensions":{"S8S_v3d_texture":{"colorSpace":"srgb"}},"name":"Menilita_5b2.jpg","sampler":0,"source":0},{"extensions":{"S8S_v3d_texture":{"colorSpace":"linear","source":1}},"name":"environment.hdr","sampler":0}]}
